<svg width="43" height="24" viewBox="0 0 43 24" fill="none" xmlns="http://www.w3.org/2000/svg">
<path d="M0.84 23L10.92 0.599998H15.016L25.128 23H20.776L12.104 2.808H13.768L5.128 23H0.84ZM5.48 17.816L6.6 14.552H18.696L19.816 17.816H5.48ZM35.2765 23.224C33.4845 23.224 31.8845 22.8507 30.4765 22.104C29.0898 21.336 28.0018 20.2907 27.2125 18.968C26.4232 17.6453 26.0285 16.1413 26.0285 14.456C26.0285 12.7493 26.4232 11.2453 27.2125 9.944C28.0018 8.62133 29.0898 7.58667 30.4765 6.84C31.8845 6.09333 33.4845 5.72 35.2765 5.72C36.9405 5.72 38.4018 6.06133 39.6605 6.744C40.9405 7.40533 41.9112 8.38667 42.5725 9.688L39.5005 11.48C38.9885 10.6693 38.3592 10.072 37.6125 9.688C36.8872 9.304 36.0978 9.112 35.2445 9.112C34.2632 9.112 33.3778 9.32533 32.5885 9.752C31.7992 10.1787 31.1805 10.7973 30.7325 11.608C30.2845 12.3973 30.0605 13.3467 30.0605 14.456C30.0605 15.5653 30.2845 16.5253 30.7325 17.336C31.1805 18.1253 31.7992 18.7333 32.5885 19.16C33.3778 19.5867 34.2632 19.8 35.2445 19.8C36.0978 19.8 36.8872 19.608 37.6125 19.224C38.3592 18.84 38.9885 18.2427 39.5005 17.432L42.5725 19.224C41.9112 20.504 40.9405 21.496 39.6605 22.2C38.4018 22.8827 36.9405 23.224 35.2765 23.224Z" fill="#FF891D"/>
</svg>
