<svg width="101" height="33" viewBox="0 0 101 33" fill="none" xmlns="http://www.w3.org/2000/svg">
<path d="M11.688 16.128C10.8347 16.128 10.0453 15.9893 9.32 15.712C8.60533 15.424 7.98133 15.024 7.448 14.512C6.92533 13.9893 6.51467 13.3813 6.216 12.688C5.91733 11.9947 5.768 11.232 5.768 10.4C5.768 9.568 5.91733 8.80533 6.216 8.112C6.51467 7.41867 6.93067 6.816 7.464 6.304C7.99733 5.78133 8.62133 5.38133 9.336 5.104C10.0613 4.816 10.8507 4.672 11.704 4.672C12.568 4.672 13.3627 4.82133 14.088 5.12C14.824 5.408 15.448 5.84 15.96 6.416L14.92 7.424C14.4933 6.976 14.0133 6.64533 13.48 6.432C12.9467 6.208 12.376 6.096 11.768 6.096C11.1387 6.096 10.552 6.20267 10.008 6.416C9.47467 6.62933 9.01067 6.928 8.616 7.312C8.22133 7.696 7.912 8.15467 7.688 8.688C7.47467 9.21067 7.368 9.78133 7.368 10.4C7.368 11.0187 7.47467 11.5947 7.688 12.128C7.912 12.6507 8.22133 13.104 8.616 13.488C9.01067 13.872 9.47467 14.1707 10.008 14.384C10.552 14.5973 11.1387 14.704 11.768 14.704C12.376 14.704 12.9467 14.5973 13.48 14.384C14.0133 14.16 14.4933 13.8187 14.92 13.36L15.96 14.368C15.448 14.944 14.824 15.3813 14.088 15.68C13.3627 15.9787 12.5627 16.128 11.688 16.128ZM18.0185 16V7.52H19.4905V9.824L19.3465 9.248C19.5812 8.66133 19.9758 8.21333 20.5305 7.904C21.0852 7.59467 21.7678 7.44 22.5785 7.44V8.928C22.5145 8.91733 22.4505 8.912 22.3865 8.912C22.3332 8.912 22.2798 8.912 22.2265 8.912C21.4052 8.912 20.7545 9.15733 20.2745 9.648C19.7945 10.1387 19.5545 10.848 19.5545 11.776V16H18.0185ZM28.1695 16.096C27.2628 16.096 26.4628 15.9093 25.7695 15.536C25.0868 15.1627 24.5535 14.6507 24.1695 14C23.7962 13.3493 23.6095 12.6027 23.6095 11.76C23.6095 10.9173 23.7908 10.1707 24.1535 9.52C24.5268 8.86933 25.0335 8.36267 25.6735 8C26.3242 7.62667 27.0548 7.44 27.8655 7.44C28.6868 7.44 29.4122 7.62133 30.0415 7.984C30.6708 8.34667 31.1615 8.85867 31.5135 9.52C31.8762 10.1707 32.0575 10.9333 32.0575 11.808C32.0575 11.872 32.0522 11.9467 32.0415 12.032C32.0415 12.1173 32.0362 12.1973 32.0255 12.272H24.8095V11.168H31.2255L30.6015 11.552C30.6122 11.008 30.5002 10.5227 30.2655 10.096C30.0308 9.66933 29.7055 9.33867 29.2895 9.104C28.8842 8.85867 28.4095 8.736 27.8655 8.736C27.3322 8.736 26.8575 8.85867 26.4415 9.104C26.0255 9.33867 25.7002 9.67467 25.4655 10.112C25.2308 10.5387 25.1135 11.0293 25.1135 11.584V11.84C25.1135 12.4053 25.2415 12.912 25.4975 13.36C25.7642 13.7973 26.1322 14.1387 26.6015 14.384C27.0708 14.6293 27.6095 14.752 28.2175 14.752C28.7188 14.752 29.1722 14.6667 29.5775 14.496C29.9935 14.3253 30.3562 14.0693 30.6655 13.728L31.5135 14.72C31.1295 15.168 30.6495 15.5093 30.0735 15.744C29.5082 15.9787 28.8735 16.096 28.1695 16.096ZM39.22 16V14.208L39.14 13.872V10.816C39.14 10.1653 38.948 9.664 38.564 9.312C38.1907 8.94933 37.6253 8.768 36.868 8.768C36.3667 8.768 35.876 8.85333 35.396 9.024C34.916 9.184 34.5107 9.40267 34.18 9.68L33.54 8.528C33.9773 8.176 34.5 7.90933 35.108 7.728C35.7267 7.536 36.372 7.44 37.044 7.44C38.2067 7.44 39.1027 7.72267 39.732 8.288C40.3613 8.85333 40.676 9.71733 40.676 10.88V16H39.22ZM36.436 16.096C35.8067 16.096 35.252 15.9893 34.772 15.776C34.3027 15.5627 33.94 15.2693 33.684 14.896C33.428 14.512 33.3 14.08 33.3 13.6C33.3 13.1413 33.4067 12.7253 33.62 12.352C33.844 11.9787 34.2013 11.68 34.692 11.456C35.1933 11.232 35.8653 11.12 36.708 11.12H39.396V12.224H36.772C36.004 12.224 35.4867 12.352 35.22 12.608C34.9533 12.864 34.82 13.1733 34.82 13.536C34.82 13.952 34.9853 14.288 35.316 14.544C35.6467 14.7893 36.1053 14.912 36.692 14.912C37.268 14.912 37.7693 14.784 38.196 14.528C38.6333 14.272 38.948 13.8987 39.14 13.408L39.444 14.464C39.2413 14.9653 38.884 15.3653 38.372 15.664C37.86 15.952 37.2147 16.096 36.436 16.096ZM46.4305 16.096C45.5772 16.096 44.9158 15.8667 44.4465 15.408C43.9772 14.9493 43.7425 14.2933 43.7425 13.44V5.664H45.2785V13.376C45.2785 13.8347 45.3905 14.1867 45.6145 14.432C45.8492 14.6773 46.1798 14.8 46.6065 14.8C47.0865 14.8 47.4865 14.6667 47.8065 14.4L48.2865 15.504C48.0518 15.7067 47.7692 15.856 47.4385 15.952C47.1185 16.048 46.7825 16.096 46.4305 16.096ZM42.3025 8.784V7.52H47.7105V8.784H42.3025ZM53.6383 16.096C52.7316 16.096 51.9316 15.9093 51.2383 15.536C50.5556 15.1627 50.0223 14.6507 49.6383 14C49.2649 13.3493 49.0783 12.6027 49.0783 11.76C49.0783 10.9173 49.2596 10.1707 49.6223 9.52C49.9956 8.86933 50.5023 8.36267 51.1423 8C51.7929 7.62667 52.5236 7.44 53.3343 7.44C54.1556 7.44 54.8809 7.62133 55.5103 7.984C56.1396 8.34667 56.6303 8.85867 56.9823 9.52C57.3449 10.1707 57.5263 10.9333 57.5263 11.808C57.5263 11.872 57.5209 11.9467 57.5103 12.032C57.5103 12.1173 57.5049 12.1973 57.4943 12.272H50.2783V11.168H56.6943L56.0703 11.552C56.0809 11.008 55.9689 10.5227 55.7343 10.096C55.4996 9.66933 55.1743 9.33867 54.7583 9.104C54.3529 8.85867 53.8783 8.736 53.3343 8.736C52.8009 8.736 52.3263 8.85867 51.9103 9.104C51.4943 9.33867 51.1689 9.67467 50.9343 10.112C50.6996 10.5387 50.5823 11.0293 50.5823 11.584V11.84C50.5823 12.4053 50.7103 12.912 50.9663 13.36C51.2329 13.7973 51.6009 14.1387 52.0703 14.384C52.5396 14.6293 53.0783 14.752 53.6863 14.752C54.1876 14.752 54.6409 14.6667 55.0463 14.496C55.4623 14.3253 55.8249 14.0693 56.1343 13.728L56.9823 14.72C56.5983 15.168 56.1183 15.5093 55.5423 15.744C54.9769 15.9787 54.3423 16.096 53.6383 16.096ZM63.1631 16.096C62.3418 16.096 61.6058 15.9147 60.9551 15.552C60.3151 15.1893 59.8085 14.6827 59.4351 14.032C59.0618 13.3813 58.8751 12.624 58.8751 11.76C58.8751 10.896 59.0618 10.144 59.4351 9.504C59.8085 8.85333 60.3151 8.34667 60.9551 7.984C61.6058 7.62133 62.3418 7.44 63.1631 7.44C63.8778 7.44 64.5231 7.6 65.0991 7.92C65.6751 8.24 66.1338 8.72 66.4751 9.36C66.8271 10 67.0031 10.8 67.0031 11.76C67.0031 12.72 66.8325 13.52 66.4911 14.16C66.1605 14.8 65.7071 15.2853 65.1311 15.616C64.5551 15.936 63.8991 16.096 63.1631 16.096ZM63.2911 14.752C63.8245 14.752 64.3045 14.6293 64.7311 14.384C65.1685 14.1387 65.5098 13.792 65.7551 13.344C66.0111 12.8853 66.1391 12.3573 66.1391 11.76C66.1391 11.152 66.0111 10.6293 65.7551 10.192C65.5098 9.744 65.1685 9.39733 64.7311 9.152C64.3045 8.90667 63.8245 8.784 63.2911 8.784C62.7471 8.784 62.2618 8.90667 61.8351 9.152C61.4085 9.39733 61.0671 9.744 60.8111 10.192C60.5551 10.6293 60.4271 11.152 60.4271 11.76C60.4271 12.3573 60.5551 12.8853 60.8111 13.344C61.0671 13.792 61.4085 14.1387 61.8351 14.384C62.2618 14.6293 62.7471 14.752 63.2911 14.752ZM66.1871 16V13.712L66.2831 11.744L66.1231 9.776V4.128H67.6591V16H66.1871ZM79.3583 16.096C78.6329 16.096 77.9769 15.936 77.3903 15.616C76.8143 15.2853 76.3556 14.8 76.0143 14.16C75.6836 13.52 75.5182 12.72 75.5182 11.76C75.5182 10.8 75.6889 10 76.0303 9.36C76.3823 8.72 76.8463 8.24 77.4223 7.92C78.0089 7.6 78.6543 7.44 79.3583 7.44C80.1903 7.44 80.9263 7.62133 81.5663 7.984C82.2063 8.34667 82.7129 8.85333 83.0863 9.504C83.4596 10.144 83.6463 10.896 83.6463 11.76C83.6463 12.624 83.4596 13.3813 83.0863 14.032C82.7129 14.6827 82.2063 15.1893 81.5663 15.552C80.9263 15.9147 80.1903 16.096 79.3583 16.096ZM74.8623 16V4.128H76.3983V9.776L76.2383 11.744L76.3343 13.712V16H74.8623ZM79.2303 14.752C79.7743 14.752 80.2596 14.6293 80.6863 14.384C81.1236 14.1387 81.4649 13.792 81.7103 13.344C81.9663 12.8853 82.0943 12.3573 82.0943 11.76C82.0943 11.152 81.9663 10.6293 81.7103 10.192C81.4649 9.744 81.1236 9.39733 80.6863 9.152C80.2596 8.90667 79.7743 8.784 79.2303 8.784C78.6969 8.784 78.2116 8.90667 77.7743 9.152C77.3476 9.39733 77.0063 9.744 76.7503 10.192C76.5049 10.6293 76.3823 11.152 76.3823 11.76C76.3823 12.3573 76.5049 12.8853 76.7503 13.344C77.0063 13.792 77.3476 14.1387 77.7743 14.384C78.2116 14.6293 78.6969 14.752 79.2303 14.752ZM85.9021 19.2C85.4968 19.2 85.1021 19.1307 84.7181 18.992C84.3341 18.864 84.0035 18.672 83.7261 18.416L84.3821 17.264C84.5955 17.4667 84.8301 17.6213 85.0861 17.728C85.3421 17.8347 85.6141 17.888 85.9021 17.888C86.2755 17.888 86.5848 17.792 86.8301 17.6C87.0755 17.408 87.3048 17.0667 87.5181 16.576L88.0461 15.408L88.2061 15.216L91.5341 7.52H93.0381L88.9261 16.848C88.6808 17.4453 88.4035 17.9147 88.0941 18.256C87.7955 18.5973 87.4648 18.8373 87.1021 18.976C86.7395 19.1253 86.3395 19.2 85.9021 19.2ZM87.9181 16.272L84.0461 7.52H85.6461L88.9421 15.072L87.9181 16.272Z" fill="#FF891D"/>
<path d="M4.695 32.18C3.855 32.18 3.05 32.07 2.28 31.85C1.51 31.62 0.89 31.325 0.42 30.965L1.245 29.135C1.695 29.455 2.225 29.72 2.835 29.93C3.455 30.13 4.08 30.23 4.71 30.23C5.19 30.23 5.575 30.185 5.865 30.095C6.165 29.995 6.385 29.86 6.525 29.69C6.665 29.52 6.735 29.325 6.735 29.105C6.735 28.825 6.625 28.605 6.405 28.445C6.185 28.275 5.895 28.14 5.535 28.04C5.175 27.93 4.775 27.83 4.335 27.74C3.905 27.64 3.47 27.52 3.03 27.38C2.6 27.24 2.205 27.06 1.845 26.84C1.485 26.62 1.19 26.33 0.96 25.97C0.74 25.61 0.63 25.15 0.63 24.59C0.63 23.99 0.79 23.445 1.11 22.955C1.44 22.455 1.93 22.06 2.58 21.77C3.24 21.47 4.065 21.32 5.055 21.32C5.715 21.32 6.365 21.4 7.005 21.56C7.645 21.71 8.21 21.94 8.7 22.25L7.95 24.095C7.46 23.815 6.97 23.61 6.48 23.48C5.99 23.34 5.51 23.27 5.04 23.27C4.57 23.27 4.185 23.325 3.885 23.435C3.585 23.545 3.37 23.69 3.24 23.87C3.11 24.04 3.045 24.24 3.045 24.47C3.045 24.74 3.155 24.96 3.375 25.13C3.595 25.29 3.885 25.42 4.245 25.52C4.605 25.62 5 25.72 5.43 25.82C5.87 25.92 6.305 26.035 6.735 26.165C7.175 26.295 7.575 26.47 7.935 26.69C8.295 26.91 8.585 27.2 8.805 27.56C9.035 27.92 9.15 28.375 9.15 28.925C9.15 29.515 8.985 30.055 8.655 30.545C8.325 31.035 7.83 31.43 7.17 31.73C6.52 32.03 5.695 32.18 4.695 32.18ZM15.5954 32V30.425L15.4454 30.08V27.26C15.4454 26.76 15.2904 26.37 14.9804 26.09C14.6804 25.81 14.2154 25.67 13.5854 25.67C13.1554 25.67 12.7304 25.74 12.3104 25.88C11.9004 26.01 11.5504 26.19 11.2604 26.42L10.4204 24.785C10.8604 24.475 11.3904 24.235 12.0104 24.065C12.6304 23.895 13.2604 23.81 13.9004 23.81C15.1304 23.81 16.0854 24.1 16.7654 24.68C17.4454 25.26 17.7854 26.165 17.7854 27.395V32H15.5954ZM13.1354 32.12C12.5054 32.12 11.9654 32.015 11.5154 31.805C11.0654 31.585 10.7204 31.29 10.4804 30.92C10.2404 30.55 10.1204 30.135 10.1204 29.675C10.1204 29.195 10.2354 28.775 10.4654 28.415C10.7054 28.055 11.0804 27.775 11.5904 27.575C12.1004 27.365 12.7654 27.26 13.5854 27.26H15.7304V28.625H13.8404C13.2904 28.625 12.9104 28.715 12.7004 28.895C12.5004 29.075 12.4004 29.3 12.4004 29.57C12.4004 29.87 12.5154 30.11 12.7454 30.29C12.9854 30.46 13.3104 30.545 13.7204 30.545C14.1104 30.545 14.4604 30.455 14.7704 30.275C15.0804 30.085 15.3054 29.81 15.4454 29.45L15.8054 30.53C15.6354 31.05 15.3254 31.445 14.8754 31.715C14.4254 31.985 13.8454 32.12 13.1354 32.12ZM24.6732 32.12C23.9632 32.12 23.3532 31.97 22.8432 31.67C22.3332 31.37 21.9432 30.915 21.6732 30.305C21.4032 29.685 21.2682 28.905 21.2682 27.965C21.2682 27.015 21.4082 26.235 21.6882 25.625C21.9782 25.015 22.3782 24.56 22.8882 24.26C23.3982 23.96 23.9932 23.81 24.6732 23.81C25.4332 23.81 26.1132 23.98 26.7132 24.32C27.3232 24.66 27.8032 25.14 28.1532 25.76C28.5132 26.38 28.6932 27.115 28.6932 27.965C28.6932 28.805 28.5132 29.535 28.1532 30.155C27.8032 30.775 27.3232 31.26 26.7132 31.61C26.1132 31.95 25.4332 32.12 24.6732 32.12ZM19.9032 32V20.87H22.2432V25.565L22.0932 27.95L22.1382 30.35V32H19.9032ZM24.2682 30.2C24.6582 30.2 25.0032 30.11 25.3032 29.93C25.6132 29.75 25.8582 29.495 26.0382 29.165C26.2282 28.825 26.3232 28.425 26.3232 27.965C26.3232 27.495 26.2282 27.095 26.0382 26.765C25.8582 26.435 25.6132 26.18 25.3032 26C25.0032 25.82 24.6582 25.73 24.2682 25.73C23.8782 25.73 23.5282 25.82 23.2182 26C22.9082 26.18 22.6632 26.435 22.4832 26.765C22.3032 27.095 22.2132 27.495 22.2132 27.965C22.2132 28.425 22.3032 28.825 22.4832 29.165C22.6632 29.495 22.9082 29.75 23.2182 29.93C23.5282 30.11 23.8782 30.2 24.2682 30.2ZM30.2597 32V23.93H32.4947V26.21L32.1797 25.55C32.4197 24.98 32.8047 24.55 33.3347 24.26C33.8647 23.96 34.5097 23.81 35.2697 23.81V25.97C35.1697 25.96 35.0797 25.955 34.9997 25.955C34.9197 25.945 34.8347 25.94 34.7447 25.94C34.1047 25.94 33.5847 26.125 33.1847 26.495C32.7947 26.855 32.5997 27.42 32.5997 28.19V32H30.2597ZM36.6757 32V23.93H39.0157V32H36.6757ZM37.8457 22.805C37.4157 22.805 37.0657 22.68 36.7957 22.43C36.5257 22.18 36.3907 21.87 36.3907 21.5C36.3907 21.13 36.5257 20.82 36.7957 20.57C37.0657 20.32 37.4157 20.195 37.8457 20.195C38.2757 20.195 38.6257 20.315 38.8957 20.555C39.1657 20.785 39.3007 21.085 39.3007 21.455C39.3007 21.845 39.1657 22.17 38.8957 22.43C38.6357 22.68 38.2857 22.805 37.8457 22.805ZM46.0924 23.81C46.7324 23.81 47.3024 23.94 47.8024 24.2C48.3124 24.45 48.7124 24.84 49.0024 25.37C49.2924 25.89 49.4374 26.56 49.4374 27.38V32H47.0974V27.74C47.0974 27.09 46.9524 26.61 46.6624 26.3C46.3824 25.99 45.9824 25.835 45.4624 25.835C45.0924 25.835 44.7574 25.915 44.4574 26.075C44.1674 26.225 43.9374 26.46 43.7674 26.78C43.6074 27.1 43.5274 27.51 43.5274 28.01V32H41.1874V23.93H43.4224V26.165L43.0024 25.49C43.2924 24.95 43.7074 24.535 44.2474 24.245C44.7874 23.955 45.4024 23.81 46.0924 23.81ZM56.5085 32V30.425L56.3585 30.08V27.26C56.3585 26.76 56.2035 26.37 55.8935 26.09C55.5935 25.81 55.1285 25.67 54.4985 25.67C54.0685 25.67 53.6435 25.74 53.2235 25.88C52.8135 26.01 52.4635 26.19 52.1735 26.42L51.3335 24.785C51.7735 24.475 52.3035 24.235 52.9235 24.065C53.5435 23.895 54.1735 23.81 54.8135 23.81C56.0435 23.81 56.9985 24.1 57.6785 24.68C58.3585 25.26 58.6985 26.165 58.6985 27.395V32H56.5085ZM54.0485 32.12C53.4185 32.12 52.8785 32.015 52.4285 31.805C51.9785 31.585 51.6335 31.29 51.3935 30.92C51.1535 30.55 51.0335 30.135 51.0335 29.675C51.0335 29.195 51.1485 28.775 51.3785 28.415C51.6185 28.055 51.9935 27.775 52.5035 27.575C53.0135 27.365 53.6785 27.26 54.4985 27.26H56.6435V28.625H54.7535C54.2035 28.625 53.8235 28.715 53.6135 28.895C53.4135 29.075 53.3135 29.3 53.3135 29.57C53.3135 29.87 53.4285 30.11 53.6585 30.29C53.8985 30.46 54.2235 30.545 54.6335 30.545C55.0235 30.545 55.3735 30.455 55.6835 30.275C55.9935 30.085 56.2185 29.81 56.3585 29.45L56.7185 30.53C56.5485 31.05 56.2385 31.445 55.7885 31.715C55.3385 31.985 54.7585 32.12 54.0485 32.12ZM68.6794 32.18C67.8394 32.18 67.0344 32.07 66.2644 31.85C65.4944 31.62 64.8744 31.325 64.4044 30.965L65.2294 29.135C65.6794 29.455 66.2094 29.72 66.8194 29.93C67.4394 30.13 68.0644 30.23 68.6944 30.23C69.1744 30.23 69.5594 30.185 69.8494 30.095C70.1494 29.995 70.3694 29.86 70.5094 29.69C70.6494 29.52 70.7194 29.325 70.7194 29.105C70.7194 28.825 70.6094 28.605 70.3894 28.445C70.1694 28.275 69.8794 28.14 69.5194 28.04C69.1594 27.93 68.7594 27.83 68.3194 27.74C67.8894 27.64 67.4544 27.52 67.0144 27.38C66.5844 27.24 66.1894 27.06 65.8294 26.84C65.4694 26.62 65.1744 26.33 64.9444 25.97C64.7244 25.61 64.6144 25.15 64.6144 24.59C64.6144 23.99 64.7744 23.445 65.0944 22.955C65.4244 22.455 65.9144 22.06 66.5644 21.77C67.2244 21.47 68.0494 21.32 69.0394 21.32C69.6994 21.32 70.3494 21.4 70.9894 21.56C71.6294 21.71 72.1944 21.94 72.6844 22.25L71.9344 24.095C71.4444 23.815 70.9544 23.61 70.4644 23.48C69.9744 23.34 69.4944 23.27 69.0244 23.27C68.5544 23.27 68.1694 23.325 67.8694 23.435C67.5694 23.545 67.3544 23.69 67.2244 23.87C67.0944 24.04 67.0294 24.24 67.0294 24.47C67.0294 24.74 67.1394 24.96 67.3594 25.13C67.5794 25.29 67.8694 25.42 68.2294 25.52C68.5894 25.62 68.9844 25.72 69.4144 25.82C69.8544 25.92 70.2894 26.035 70.7194 26.165C71.1594 26.295 71.5594 26.47 71.9194 26.69C72.2794 26.91 72.5694 27.2 72.7894 27.56C73.0194 27.92 73.1344 28.375 73.1344 28.925C73.1344 29.515 72.9694 30.055 72.6394 30.545C72.3094 31.035 71.8144 31.43 71.1544 31.73C70.5044 32.03 69.6794 32.18 68.6794 32.18ZM74.6298 32V23.93H76.9698V32H74.6298ZM75.7998 22.805C75.3698 22.805 75.0198 22.68 74.7498 22.43C74.4798 22.18 74.3448 21.87 74.3448 21.5C74.3448 21.13 74.4798 20.82 74.7498 20.57C75.0198 20.32 75.3698 20.195 75.7998 20.195C76.2298 20.195 76.5798 20.315 76.8498 20.555C77.1198 20.785 77.2548 21.085 77.2548 21.455C77.2548 21.845 77.1198 22.17 76.8498 22.43C76.5898 22.68 76.2398 22.805 75.7998 22.805ZM79.1415 32V20.87H81.4815V32H79.1415ZM85.8432 32L82.4532 23.93H84.8682L87.6882 30.875H86.4882L89.4132 23.93H91.6632L88.2582 32H85.8432ZM97.3044 32V30.425L97.1544 30.08V27.26C97.1544 26.76 96.9994 26.37 96.6894 26.09C96.3894 25.81 95.9244 25.67 95.2944 25.67C94.8644 25.67 94.4394 25.74 94.0194 25.88C93.6094 26.01 93.2594 26.19 92.9694 26.42L92.1294 24.785C92.5694 24.475 93.0994 24.235 93.7194 24.065C94.3394 23.895 94.9694 23.81 95.6094 23.81C96.8394 23.81 97.7944 24.1 98.4744 24.68C99.1544 25.26 99.4944 26.165 99.4944 27.395V32H97.3044ZM94.8444 32.12C94.2144 32.12 93.6744 32.015 93.2244 31.805C92.7744 31.585 92.4294 31.29 92.1894 30.92C91.9494 30.55 91.8294 30.135 91.8294 29.675C91.8294 29.195 91.9444 28.775 92.1744 28.415C92.4144 28.055 92.7894 27.775 93.2994 27.575C93.8094 27.365 94.4744 27.26 95.2944 27.26H97.4394V28.625H95.5494C94.9994 28.625 94.6194 28.715 94.4094 28.895C94.2094 29.075 94.1094 29.3 94.1094 29.57C94.1094 29.87 94.2244 30.11 94.4544 30.29C94.6944 30.46 95.0194 30.545 95.4294 30.545C95.8194 30.545 96.1694 30.455 96.4794 30.275C96.7894 30.085 97.0144 29.81 97.1544 29.45L97.5144 30.53C97.3444 31.05 97.0344 31.445 96.5844 31.715C96.1344 31.985 95.5544 32.12 94.8444 32.12Z" fill="#FF891D"/>
</svg>
