<svg width="98" height="31" viewBox="0 0 98 31" fill="none" xmlns="http://www.w3.org/2000/svg">
<path d="M7.552 24V5.12H0.128V1.6H19.136V5.12H11.712V24H7.552ZM27.804 24.224C26.0547 24.224 24.4973 23.8507 23.132 23.104C21.7667 22.336 20.6893 21.2907 19.9 19.968C19.1107 18.6453 18.716 17.1413 18.716 15.456C18.716 13.7493 19.1107 12.2453 19.9 10.944C20.6893 9.62133 21.7667 8.58667 23.132 7.84C24.4973 7.09333 26.0547 6.72 27.804 6.72C29.5747 6.72 31.1427 7.09333 32.508 7.84C33.8947 8.58667 34.972 9.61067 35.74 10.912C36.5293 12.2133 36.924 13.728 36.924 15.456C36.924 17.1413 36.5293 18.6453 35.74 19.968C34.972 21.2907 33.8947 22.336 32.508 23.104C31.1427 23.8507 29.5747 24.224 27.804 24.224ZM27.804 20.8C28.7853 20.8 29.66 20.5867 30.428 20.16C31.196 19.7333 31.7933 19.1147 32.22 18.304C32.668 17.4933 32.892 16.544 32.892 15.456C32.892 14.3467 32.668 13.3973 32.22 12.608C31.7933 11.7973 31.196 11.1787 30.428 10.752C29.66 10.3253 28.796 10.112 27.836 10.112C26.8547 10.112 25.98 10.3253 25.212 10.752C24.4653 11.1787 23.868 11.7973 23.42 12.608C22.972 13.3973 22.748 14.3467 22.748 15.456C22.748 16.544 22.972 17.4933 23.42 18.304C23.868 19.1147 24.4653 19.7333 25.212 20.16C25.98 20.5867 26.844 20.8 27.804 20.8ZM47.981 24.224C46.3383 24.224 44.8557 23.8613 43.533 23.136C42.2317 22.3893 41.2077 21.3653 40.461 20.064C39.7143 18.7627 39.341 17.2267 39.341 15.456C39.341 13.6853 39.7143 12.1493 40.461 10.848C41.2077 9.54667 42.2317 8.53333 43.533 7.808C44.8557 7.08267 46.3383 6.72 47.981 6.72C49.4103 6.72 50.6903 7.04 51.821 7.68C52.9517 8.29867 53.8477 9.248 54.509 10.528C55.1703 11.808 55.501 13.4507 55.501 15.456C55.501 17.44 55.181 19.0827 54.541 20.384C53.901 21.664 53.0157 22.624 51.885 23.264C50.7543 23.904 49.453 24.224 47.981 24.224ZM48.461 20.8C49.421 20.8 50.2743 20.5867 51.021 20.16C51.789 19.7333 52.397 19.1147 52.845 18.304C53.3143 17.4933 53.549 16.544 53.549 15.456C53.549 14.3467 53.3143 13.3973 52.845 12.608C52.397 11.7973 51.789 11.1787 51.021 10.752C50.2743 10.3253 49.421 10.112 48.461 10.112C47.501 10.112 46.637 10.3253 45.869 10.752C45.1223 11.1787 44.5143 11.7973 44.045 12.608C43.597 13.3973 43.373 14.3467 43.373 15.456C43.373 16.544 43.597 17.4933 44.045 18.304C44.5143 19.1147 45.1223 19.7333 45.869 20.16C46.637 20.5867 47.501 20.8 48.461 20.8ZM53.645 24V19.968L53.805 15.424L53.485 10.88V0.255999H57.453V24H53.645ZM73.2458 24V20.544L73.0218 19.808V13.76C73.0218 12.5867 72.6698 11.68 71.9658 11.04C71.2618 10.3787 70.1951 10.048 68.7658 10.048C67.8058 10.048 66.8564 10.1973 65.9178 10.496C65.0004 10.7947 64.2218 11.2107 63.5818 11.744L62.0138 8.832C62.9311 8.128 64.0191 7.60533 65.2778 7.264C66.5578 6.90133 67.8804 6.72 69.2458 6.72C71.7204 6.72 73.6298 7.31733 74.9738 8.512C76.3391 9.68533 77.0218 11.5093 77.0218 13.984V24H73.2458ZM67.8698 24.224C66.5898 24.224 65.4698 24.0107 64.5098 23.584C63.5498 23.136 62.8031 22.528 62.2698 21.76C61.7578 20.9707 61.5018 20.0853 61.5018 19.104C61.5018 18.144 61.7258 17.28 62.1738 16.512C62.6431 15.744 63.4004 15.136 64.4458 14.688C65.4911 14.24 66.8778 14.016 68.6058 14.016H73.5658V16.672H68.8938C67.5284 16.672 66.6111 16.896 66.1418 17.344C65.6724 17.7707 65.4378 18.304 65.4378 18.944C65.4378 19.6693 65.7258 20.2453 66.3018 20.672C66.8778 21.0987 67.6778 21.312 68.7018 21.312C69.6831 21.312 70.5578 21.088 71.3258 20.64C72.1151 20.192 72.6804 19.5307 73.0218 18.656L73.6938 21.056C73.3098 22.0587 72.6164 22.8373 71.6138 23.392C70.6324 23.9467 69.3844 24.224 67.8698 24.224ZM83.2508 30.432C82.4188 30.432 81.5868 30.2933 80.7548 30.016C79.9228 29.7387 79.2294 29.3547 78.6747 28.864L80.2747 25.92C80.6801 26.2827 81.1388 26.5707 81.6508 26.784C82.1628 26.9973 82.6854 27.104 83.2188 27.104C83.9441 27.104 84.5308 26.9227 84.9788 26.56C85.4268 26.1973 85.8428 25.5893 86.2268 24.736L87.2188 22.496L87.5388 22.016L94.0028 6.912H97.8428L89.8428 25.376C89.3094 26.656 88.7121 27.6693 88.0508 28.416C87.4108 29.1627 86.6854 29.6853 85.8748 29.984C85.0854 30.2827 84.2108 30.432 83.2508 30.432ZM86.7708 24.608L79.0587 6.912H83.2188L89.4908 21.664L86.7708 24.608Z" fill="#FF891D"/>
</svg>
